HIERARCHY
ROOT hip
{
	OFFSET 0.00000 0.00000 0.00000
	CHANNELS 6 Xposition Yposition Zposition Zrotation Yrotation Xrotation
	JOINT lhipjoint
	{
		OFFSET 0 0 0
		CHANNELS 3 Zrotation Yrotation Xrotation
		JOINT lfemur
		{
			OFFSET 1.57314 -1.85774 0.63783
			CHANNELS 3 Zrotation Yrotation Xrotation
			JOINT ltibia
			{
				OFFSET 2.57982 -7.08799 0.00000
				CHANNELS 3 Zrotation Yrotation Xrotation
				JOINT lfoot
				{
					OFFSET 2.63993 -7.25315 0.00000
					CHANNELS 3 Zrotation Yrotation Xrotation
					JOINT ltoes
					{
						OFFSET 0.16864 -0.46332 2.12791
						CHANNELS 3 Zrotation Yrotation Xrotation
						End Site
						{
							OFFSET 0.00000 -0.00000 1.09718
						}
					}
				}
			}
		}
	}
	JOINT rhipjoint
	{
		OFFSET 0 0 0
		CHANNELS 3 Zrotation Yrotation Xrotation
		JOINT rfemur
		{
			OFFSET -1.56006 -1.85774 0.63784
			CHANNELS 3 Zrotation Yrotation Xrotation
			JOINT rtibia
			{
				OFFSET -2.54246 -6.98536 0.00000
				CHANNELS 3 Zrotation Yrotation Xrotation
				JOINT rfoot
				{
					OFFSET -2.65791 -7.30256 0.00000
					CHANNELS 3 Zrotation Yrotation Xrotation
					JOINT rtoes
					{
						OFFSET -0.18435 -0.50650 2.16316
						CHANNELS 3 Zrotation Yrotation Xrotation
						End Site
						{
							OFFSET -0.00000 -0.00000 1.11780
						}
					}
				}
			}
		}
	}
	JOINT lowerback
	{
		OFFSET 0 0 0
		CHANNELS 3 Zrotation Yrotation Xrotation
		JOINT upperback
		{
			OFFSET -0.00136 1.92812 -0.29638
			CHANNELS 3 Zrotation Yrotation Xrotation
			JOINT thorax
			{
				OFFSET -0.00528 1.96223 -0.02928
				CHANNELS 3 Zrotation Yrotation Xrotation
				JOINT lowerneck
				{
					OFFSET 0 0 0
					CHANNELS 3 Zrotation Yrotation Xrotation
					JOINT upperneck
					{
						OFFSET -0.01015 1.75586 0.07797
						CHANNELS 3 Zrotation Yrotation Xrotation
						JOINT head
						{
							OFFSET 0.05540 1.72452 0.04558
							CHANNELS 3 Zrotation Yrotation Xrotation
							End Site
							{
								OFFSET 0.02170 1.79958 0.00864
							}
						}
					}
				}
				JOINT lclavicle
				{
					OFFSET 0 0 0
					CHANNELS 3 Zrotation Yrotation Xrotation
					JOINT lhumerus
					{
						OFFSET 3.16292 1.29277 -0.65728
						CHANNELS 3 Zrotation Yrotation Xrotation
						JOINT lradius
						{
							OFFSET 5.52302 -0.00000 -0.00000
							CHANNELS 3 Zrotation Yrotation Xrotation
							JOINT lwrist
							{
								OFFSET 3.58675 -0.00000 -0.00000
								CHANNELS 3 Zrotation Yrotation Xrotation
								JOINT lhand
								{
									OFFSET 0 0 0
									CHANNELS 3 Zrotation Yrotation Xrotation
									JOINT lfingers
									{
										OFFSET 0.53641 -0.00000 -0.00000
										CHANNELS 3 Zrotation Yrotation Xrotation
										End Site
										{
											OFFSET 0.43247 -0.00000 -0.00000
										}
									}
								}
								JOINT lthumb
								{
									OFFSET 0 0 0
									CHANNELS 3 Zrotation Yrotation Xrotation
									End Site
									{
										OFFSET 0.43907 -0.00000 0.43907
									}
								}
							}
						}
					}
				}
				JOINT rclavicle
				{
					OFFSET 0 0 0
					CHANNELS 3 Zrotation Yrotation Xrotation
					JOINT rhumerus
					{
						OFFSET -3.08296 1.43376 -0.52927
						CHANNELS 3 Zrotation Yrotation Xrotation
						JOINT rradius
						{
							OFFSET -5.84780 -0.00000 0.00000
							CHANNELS 3 Zrotation Yrotation Xrotation
							JOINT rwrist
							{
								OFFSET -3.62717 -0.00000 -0.00000
								CHANNELS 3 Zrotation Yrotation Xrotation
								JOINT rhand
								{
									OFFSET 0 0 0
									CHANNELS 3 Zrotation Yrotation Xrotation
									JOINT rfingers
									{
										OFFSET -0.65052 -0.00000 -0.00000
										CHANNELS 3 Zrotation Yrotation Xrotation
										End Site
										{
											OFFSET -0.52446 -0.00000 -0.00000
										}
									}
								}
								JOINT rthumb
								{
									OFFSET 0 0 0
									CHANNELS 3 Zrotation Yrotation Xrotation
									End Site
									{
										OFFSET -0.53247 -0.00000 0.53247
									}
								}
							}
						}
					}
				}
			}
		}
	}
}
MOTION
Frames: 6
Frame Time: 0.033333
2.4650 -3.1100 -2.6933 2.5979 8.1712 -7.2148 1.9277 14.2383 6.4199 -0.7575 -1.5838 14.2310 -6.7421 8.6148 8.2258 3.5455 -6.0264 12.6343 -10.3490 -9.6099 -3.5605 -15.1293 -22.9159 13.2766 16.4159 18.2881 -10.5202 13.3838 -21.5144 4.4813 -17.0308 8.8124 -26.6350 7.8309 -9.8930 0.7732 2.8438 -4.3665 8.0198 -1.6541 -5.1969 -1.8316 5.0205 4.3878 -2.8878 -4.9407 -2.6362 -8.1126 2.7983 0.8724 0.5535 3.3198 -0.8863 -3.7509 -2.3571 -1.3308 -3.8631 -2.3937 0.0930 0.8676 2.3867 -10.5355 -1.7666 5.6549 -5.6177 -6.3702 4.1775 1.4758 1.0058 -2.6269 -1.6267 0.0627 -1.1429 0.0218 0.9143 0.0070 3.6235 3.4556 3.0029 1.1449 1.1014 0.9652 0.0882 0.0630 0.0578 0.0168 0.0156 0.0000 0.0000 0.0000 0.0000 0.0000 0.0000 0.0000 0.0000 0.0000
-17.8054 21.2763 20.2995 -18.1419 -57.1275 51.2052 -13.7776 -98.5927 -45.0517 5.2191 10.4672 -99.2153 47.0662 -59.4658 -57.2577 -24.8195 41.9562 -88.0013 71.3974 67.1571 24.2561 105.0940 160.1914 -92.6899 -114.3616 -127.1751 73.1139 -93.1016 150.1265 -31.5672 118.6204 -61.5007 184.9203 -54.1947 68.6822 -5.9324 -19.5620 30.7536 -55.8170 11.7702 36.2309 12.6886 -35.1587 -30.2686 20.1902 34.4605 18.3381 56.4314 -19.7436 -6.4879 -4.1080 -22.9135 6.4319 25.8175 16.9316 9.3170 26.9354 16.5866 -0.6714 -6.0459 -16.6817 73.3933 12.1590 -39.1102 39.3952 44.8426 -28.6601 -10.2968 -6.9079 18.2977 11.3448 -0.4281 7.9286 -0.1716 -6.3506 -0.0476 -26.2450 -24.9979 -21.7840 -8.2467 -7.8246 -6.8166 -0.5813 -0.4161 -0.3827 -0.1116 -0.1047 0.0000 0.0000 0.0000 0.0000 0.0000 0.0000 0.0000 0.0000 0.0000
-8.4784 10.7024 9.2522 -8.9033 -28.3329 24.8206 -6.4615 -49.1928 -22.0972 2.4537 5.4927 -49.1908 23.2754 -30.0086 -28.4964 -12.2681 20.8294 -43.6988 35.8126 33.3074 12.3680 52.3319 79.0729 -45.9067 -56.7743 -63.3630 36.4149 -46.2704 74.4791 -15.3611 58.9346 -30.3918 92.4138 -27.1569 34.2814 -2.4375 -9.8238 15.1389 -27.7250 5.7532 18.0118 6.4221 -17.5296 -15.0052 9.9226 17.0019 9.1744 28.0665 -9.6953 -2.9617 -1.7772 -11.5030 2.8257 12.9390 8.1122 4.6304 13.3137 8.2819 -0.3399 -2.9932 -8.2936 36.4393 6.1902 -19.7261 19.2455 22.0270 -14.3245 -5.1380 -3.3284 8.9129 5.6393 -0.2076 3.9336 -0.0843 -3.1428 -0.0225 -12.4761 -11.7179 -10.1790 -3.7987 -3.6409 -3.1642 -0.2757 -0.1955 -0.1792 -0.0521 -0.0490 0.0000 0.0000 0.0000 0.0000 0.0000 0.0000 0.0000 0.0000 0.0000
17.6015 -19.1231 -22.4862 17.2157 54.4030 -50.8577 14.0145 88.4244 43.3174 -4.3274 -7.6681 91.1445 -43.6654 51.9233 52.2772 23.6902 -38.9508 81.3592 -62.6118 -62.9316 -20.1802 -95.8563 -149.2051 86.0071 105.2486 116.0922 -66.7244 85.3548 -139.0633 30.0300 -109.5840 57.6377 -168.4705 48.5091 -63.1813 6.1503 17.1895 -28.6114 50.7137 -11.6187 -33.3247 -11.5058 33.8053 25.5174 -19.3611 -31.8763 -17.1300 -51.1834 19.9719 8.4418 4.4005 19.8346 -6.0807 -22.6726 -18.1377 -9.1928 -24.9215 -15.1458 0.8445 5.4238 16.1304 -68.7843 -10.7430 35.8494 -37.2792 -43.9766 24.8686 10.2265 5.8562 -16.5304 -10.5735 0.2782 -7.1560 0.2818 5.8048 -0.0254 26.4264 25.3955 22.3928 9.6042 8.9880 7.4091 -0.1046 -0.0858 -0.0900 -0.0443 -0.0442 0.0000 0.0000 0.0000 0.0000 0.0000 0.0000 0.0000 0.0000 0.0000
-12.1576 12.5740 14.8052 -11.8467 -35.9801 32.1277 -8.9349 -61.9772 -27.7211 4.2152 7.1748 -62.9228 30.0317 -38.4923 -35.9793 -15.1686 26.1872 -55.2837 45.6555 41.1120 15.8061 66.0920 101.0804 -58.1453 -71.7082 -80.1742 46.2283 -58.9999 94.1512 -19.9834 74.0633 -39.2648 115.5919 -34.5642 42.0922 -4.9044 -12.3382 20.2611 -35.3414 7.2697 22.7368 7.6392 -21.2698 -20.7466 12.8210 21.7021 11.2539 35.8496 -11.8333 -3.2117 -2.8011 -15.2205 4.5875 16.9764 9.8126 5.6049 17.1448 10.5653 -0.2925 -3.8161 -10.1256 45.9207 7.6922 -24.1746 25.1268 27.1514 -19.5001 -6.1339 -5.3064 12.3192 6.9322 -0.3191 5.1687 -0.0050 -4.1221 -0.0266 -18.0768 -17.7387 -15.6660 -4.9648 -4.8317 -4.3099 -0.5926 -0.4304 -0.3974 -0.0962 -0.0865 0.0000 0.0000 0.0000 0.0000 0.0000 0.0000 0.0000 0.0000 0.0000
-10.4321 16.0219 7.9114 -10.5071 -38.2697 33.0033 -6.1024 -69.7309 -31.6907 -0.1343 6.5497 -68.5127 31.6159 -42.1719 -40.9887 -17.5606 29.0891 -61.6230 49.8024 49.2233 17.6170 73.9268 109.2990 -65.5287 -81.0731 -90.7444 51.9269 -65.2064 106.4460 -20.6815 84.4843 -42.1833 134.7981 -38.9173 50.3190 -0.0304 -13.4723 21.2349 -38.6528 9.0783 26.0528 11.0612 -27.8435 -16.8187 12.9341 23.3810 14.1461 39.1275 -14.3178 -4.3507 -0.8025 -15.0097 -0.0112 15.9574 11.7145 6.9046 17.6176 11.3718 -0.8914 -4.0796 -12.4710 50.5888 9.2028 -29.6409 24.0359 32.0898 -15.7825 -7.9143 -1.3930 9.3243 8.1744 -0.1210 4.9434 -0.3758 -3.9291 -0.0292 -14.6656 -13.5416 -11.4001 -3.8535 -3.1279 -2.3767 0.1430 0.0913 0.0745 -0.0172 -0.0230 0.0000 0.0000 0.0000 0.0000 0.0000 0.0000 0.0000 0.0000 0.0000
